<?xml version="1.0" encoding="UTF-8"?>
<svg id="Layer_1" xmlns="http://www.w3.org/2000/svg" version="1.1" viewBox="0 0 2000 359">
  <!-- Generator: Adobe Illustrator 29.5.1, SVG Export Plug-In . SVG Version: 2.1.0 Build 141)  -->
  <g>
    <path d="M1797.34,332.4c-4.33,0-8.81-.31-13.31-.91-14.47-1.93-27.08-5.28-37.47-9.94-11.26-5.05-20.36-11.95-27.03-20.5-6.67-8.53-11.14-18.84-13.29-30.64-2.01-10.96-2.07-23.67-.19-37.77l6.4-47.86c-.22-.03-.44-.07-.66-.12-14.66-2.99-21.37-10.68-24.41-16.59-3.78-7.33-4.77-17.28-3.01-30.41,1.7-12.69,5.76-21.95,12.42-28.31,6-5.74,13.91-8.77,22.86-8.77,1.31,0,2.67.06,4.04.19l3.39-25.38c.87-6.52,2.18-12.12,4-17.12,2.7-7.45,8.25-13.37,16.04-17.11,4.81-2.31,10.55-3.44,17.55-3.44,3.37,0,7.1.27,11.1.81,12.3,1.64,21.18,5.06,27.15,10.46,6.45,5.85,10.14,13.29,10.68,21.55.36,5.58.14,11.34-.63,17.13l-3.12,23.36,11.78,1.23c.13.01.27.03.4.05,5.82.78,11.38,2.08,16.55,3.88,7.69,2.69,13.81,8.19,17.73,15.9,3.65,7.19,4.6,16.79,2.92,29.35-1.56,11.68-4.82,20.24-9.97,26.18-5.5,6.35-12.61,10.25-20.56,11.25-2.65.33-5.4.5-8.17.5-3.24,0-6.62-.23-10.05-.69-.11-.01-.21-.03-.32-.05l-11.79-1.85-6.02,45.03c-.36,2.66-.44,4.53-.42,5.81.91.21,2.09.44,3.62.64,6.71.9,12.79,2.37,18.05,4.37,7.52,2.87,13.36,8.12,16.9,15.18,3.34,6.7,4.17,15.23,2.61,26.87-1.64,12.31-5.07,21.19-10.46,27.16-5.93,6.56-13.51,10.19-21.91,10.5-1.13.04-2.26.06-3.4.06Z" fill="#cdd6f4"/>
    <path d="M1723.66,114.86l42.71,5.71,53.79,5.61c4.91.66,9.51,1.73,13.8,3.23,4.28,1.5,7.56,4.51,9.86,9.02,2.29,4.52,2.8,11.58,1.52,21.15-1.18,8.8-3.4,15.1-6.67,18.87-3.27,3.78-7.19,5.96-11.74,6.53-4.56.58-9.42.52-14.6-.17l-50.71-7.96-47.03-5.89c-7.44-1.52-12.36-4.62-14.76-9.28-2.41-4.67-2.93-12.05-1.59-22.15,1.25-9.32,3.98-16,8.21-20.05,4.23-4.04,9.97-5.58,17.22-4.62ZM1785.88,317.62c-13.2-1.76-24.4-4.71-33.6-8.84-9.2-4.13-16.44-9.57-21.73-16.34-5.29-6.77-8.81-14.94-10.55-24.53-1.75-9.58-1.78-20.72-.08-33.41l21.01-157.25c.73-5.44,1.82-10.16,3.28-14.19,1.46-4.02,4.44-7.11,8.95-9.28,4.5-2.16,11.42-2.62,20.73-1.38,9.32,1.25,15.86,3.57,19.62,6.97,3.76,3.4,5.79,7.43,6.09,12.08.3,4.65.12,9.44-.54,14.35l-20.6,154.15c-.55,4.14-.69,7.61-.4,10.42.28,2.8.98,4.94,2.11,6.41,1.12,1.47,2.81,2.62,5.07,3.44,2.26.83,5.07,1.47,8.44,1.92,5.69.76,10.67,1.96,14.94,3.58,4.26,1.62,7.38,4.41,9.36,8.36,1.97,3.96,2.39,10.2,1.25,18.74-1.25,9.32-3.57,15.86-6.97,19.62-3.41,3.76-7.42,5.73-12.05,5.9-4.64.17-9.42-.07-14.33-.73Z" fill="#cba6f7"/>
  </g>
  <g>
    <path d="M1576.09,332.48c-5.29,0-10.61-.39-15.81-1.15-13.84-2.03-27.36-6.81-40.17-14.21-12.69-7.33-23.97-16.86-33.52-28.3-9.69-11.6-16.91-25.03-21.46-39.9-4.61-15.06-5.68-31.31-3.2-48.29,2.32-15.83,7.58-30.37,15.65-43.21,7.94-12.65,18.06-23.61,30.08-32.55,12-8.94,25.4-15.49,39.81-19.48,9.35-2.58,19.03-3.89,28.78-3.89,5.49,0,11.11.42,16.71,1.24,21.02,3.08,39.66,11.06,55.38,23.73,15.6,12.57,27.41,28.42,35.1,47.12,7.75,18.86,10.11,39.08,7.03,60.12-2.6,17.76-8.35,33.41-17.08,46.51-8.6,12.91-19.28,23.69-31.73,32.05-12.37,8.3-25.76,14.12-39.82,17.28-8.64,1.94-17.3,2.93-25.76,2.93ZM1575.3,188.56c-3.42,0-6.52.6-9.5,1.83-4.45,1.84-8.17,4.66-11.37,8.62-3.1,3.83-5,8.38-5.81,13.92-.96,6.55-.39,11.88,1.73,16.3,2.23,4.64,5.18,8.12,9.04,10.62,4.29,2.8,8.58,4.52,12.74,5.13,1.16.17,2.36.26,3.58.26,3.08,0,6.41-.55,9.9-1.64,4.65-1.45,8.69-4.02,12.36-7.87,3.23-3.39,5.36-8.45,6.33-15.04.85-5.82.4-10.81-1.38-15.25-1.76-4.38-4.47-7.91-8.27-10.79-3.94-2.99-8.75-4.87-14.7-5.74-1.6-.23-3.16-.35-4.65-.35Z" fill="#cdd6f4"/>
    <path d="M1562.32,317.48c-12.15-1.78-23.87-5.94-35.19-12.48-11.32-6.54-21.24-14.92-29.77-25.15-8.54-10.22-14.81-21.9-18.82-35.02-4.02-13.12-4.93-27.18-2.73-42.17,2.04-13.95,6.59-26.55,13.65-37.79,7.05-11.24,15.92-20.83,26.58-28.77,10.66-7.94,22.39-13.68,35.18-17.22,12.79-3.53,26.03-4.3,39.73-2.3,18.61,2.72,34.81,9.65,48.62,20.78,13.81,11.13,24.12,24.98,30.93,41.55,6.81,16.57,8.85,34.16,6.13,52.76-2.31,15.76-7.27,29.36-14.88,40.78-7.61,11.42-16.91,20.82-27.88,28.18-10.98,7.37-22.68,12.45-35.09,15.25-12.42,2.8-24.58,3.33-36.46,1.59ZM1570.11,258.84c6.2.91,12.76.28,19.67-1.87,6.91-2.15,13.02-6.01,18.32-11.57,5.3-5.56,8.65-13.12,10.05-22.68,1.21-8.27.46-15.77-2.25-22.5-2.71-6.73-6.97-12.31-12.79-16.72-5.83-4.42-12.87-7.23-21.13-8.44-7.75-1.14-14.93-.34-21.53,2.39-6.61,2.73-12.24,6.99-16.92,12.77-4.68,5.79-7.6,12.68-8.77,20.69-1.36,9.3-.38,17.43,2.96,24.39,3.34,6.96,8.01,12.39,14.04,16.31,6.02,3.92,12.14,6.33,18.34,7.24Z" fill="#b4befe"/>
    <path d="M1683,195.88c36.83-69.74,10.94-126.73,10.94-126.73,0,0-43.3-.2-85.72,38.41,0,0,71.37,14.76,74.79,88.32" fill="#cba6f7" stroke="#cdd6f4" stroke-miterlimit="10" stroke-width="14"/>
    <path d="M1481.97,162.73c-9.76-78.17,34.68-122.45,34.68-122.45,0,0,40.59,14.97,66.61,65.97,0,0-72.03-11.17-101.29,56.48" fill="#cba6f7" stroke="#cdd6f4" stroke-miterlimit="10" stroke-width="14"/>
  </g>
  <g>
    <path d="M1367.52,317.38c-7.12,0-14.23-.69-21.13-2.04-13.73-2.69-26.99-8.12-39.43-16.13-12.33-7.94-23.13-18-32.11-29.89-9.12-12.05-15.68-25.81-19.5-40.89-3.88-15.26-4.16-31.54-.86-48.39,3.08-15.7,9.04-29.97,17.72-42.4,8.54-12.25,19.18-22.71,31.62-31.06,12.42-8.35,26.12-14.25,40.71-17.53,7.75-1.74,15.7-2.62,23.63-2.62,7.22,0,14.59.73,21.93,2.17,20.85,4.09,39.08,12.97,54.17,26.38,14.97,13.31,26,29.71,32.78,48.77,6.83,19.21,8.21,39.53,4.12,60.39-3.46,17.61-9.96,32.97-19.31,45.63-9.21,12.48-20.4,22.73-33.25,30.47-12.76,7.69-26.42,12.85-40.61,15.33-6.88,1.2-13.76,1.81-20.47,1.81ZM1366.95,173.43c-2.91,0-5.6.46-8.23,1.4-4.53,1.62-8.39,4.26-11.78,8.06-3.28,3.68-5.4,8.13-6.47,13.62-1.27,6.49-.97,11.84.94,16.36,2,4.75,4.79,8.36,8.52,11.05,4.15,3,8.35,4.93,12.48,5.74,1.56.31,3.19.46,4.87.46,2.7,0,5.61-.4,8.66-1.19,4.71-1.22,8.87-3.6,12.73-7.26,3.39-3.23,5.77-8.18,7.05-14.72,1.13-5.78.92-10.78-.65-15.29-1.55-4.46-4.08-8.12-7.74-11.18-3.79-3.18-8.51-5.29-14.41-6.44-2.06-.4-4.07-.61-5.98-.61Z" fill="#cdd6f4"/>
    <path d="M1349.09,301.6c-12.05-2.36-23.56-7.09-34.55-14.16-10.99-7.08-20.49-15.93-28.52-26.56-8.03-10.62-13.73-22.59-17.11-35.89-3.38-13.3-3.61-27.39-.69-42.25,2.72-13.84,7.87-26.2,15.46-37.08,7.59-10.89,16.91-20.04,27.94-27.45,11.04-7.42,23.03-12.58,35.98-15.49,12.94-2.91,26.21-3.04,39.79-.37,18.45,3.62,34.3,11.32,47.56,23.11,13.26,11.78,22.88,26.12,28.89,42.99,6,16.88,7.19,34.55,3.57,53-3.07,15.63-8.68,28.97-16.83,40.01-8.16,11.04-17.89,19.98-29.21,26.8-11.32,6.83-23.25,11.34-35.79,13.53-12.54,2.19-24.71,2.14-36.49-.18ZM1359.71,243.41c6.15,1.21,12.73.9,19.74-.92,7.01-1.82,13.29-5.37,18.86-10.67,5.56-5.3,9.28-12.68,11.14-22.17,1.61-8.2,1.22-15.73-1.16-22.58-2.38-6.86-6.37-12.63-11.97-17.32-5.6-4.69-12.5-7.84-20.7-9.45-7.69-1.51-14.9-1.06-21.62,1.35-6.73,2.41-12.57,6.38-17.51,11.93-4.95,5.55-8.2,12.3-9.76,20.24-1.81,9.23-1.22,17.39,1.78,24.5,3,7.11,7.41,12.77,13.24,16.97,5.82,4.21,11.82,6.91,17.97,8.12Z" fill="#b4befe"/>
    <path d="M1462.81,148.59c14.68-77.49-26.85-124.34-26.85-124.34,0,0-41.44,12.55-70.62,61.94,0,0,72.56-6.9,97.47,62.4" fill="#cba6f7" stroke="#cdd6f4" stroke-miterlimit="10" stroke-width="14"/>
    <path d="M1261.28,176.71c-32.33-71.83-2.9-127.23-2.9-127.23,0,0,43.2,2.36,83.07,43.44,0,0-72.12,10.52-80.18,83.79" fill="#cba6f7" stroke="#cdd6f4" stroke-miterlimit="10" stroke-width="14"/>
  </g>
  <g>
    <path d="M1177.5,297.25c-7.32,0-13.25-1.2-18.11-3.67-7.65-3.89-13.09-10.21-15.73-18.28-1.76-5.34-3.02-11.01-3.75-16.82l-17.03-135.65c-.77-6.12-.94-11.97-.51-17.4.64-8.21,4.48-15.55,11.12-21.2,5.97-5.09,14.95-8.33,27.42-9.9,3.89-.49,7.52-.74,10.78-.74,6.7,0,12.21,1.01,16.82,3.1,2,.91,3.85,1.92,5.53,3.04,3.94-3.4,8.56-6.49,13.78-9.22,6.78-3.54,14.71-5.89,23.59-7.01,3.35-.42,7.1-.66,11.14-.72.3,0,.62,0,.93,0,4.12,0,8.46.4,12.89,1.19,5.08.91,9.9,2.4,14.32,4.45,5.1,2.36,9.51,5.62,13.09,9.67,4.19,4.76,6.76,10.69,7.63,17.66,1.68,13.36-.12,25.45-5.36,35.93-7.73,15.47-19.52,19.99-28.05,21.06-3.12.39-5.75.58-8.04.58s-4.36-.2-6.2-.61c-3.31-.72-6.32-1.88-8.89-3.42-.02-.01-.13-.07-.33-.15-.54,0-1.71.05-3.79.31-2.52.32-4.89.95-7.02,1.88-1.87.82-3.53,1.93-5.06,3.39-1.16,1.11-1.96,2.3-2.49,3.76-.49,1.33-.62,2.9-.38,4.8l10.69,85.12c.73,5.81.9,11.56.49,17.12-.62,8.52-4.55,15.95-11.37,21.49-6.04,4.91-14.68,7.93-27.2,9.5-3.94.49-7.6.75-10.9.75Z" fill="#cdd6f4"/>
    <path d="M1186.65,282.61c-9.59,1.2-16.56.7-20.92-1.52-4.36-2.22-7.29-5.6-8.78-10.15-1.5-4.55-2.55-9.29-3.17-14.21l-17.03-135.65c-.65-5.18-.8-10.03-.45-14.55.35-4.52,2.43-8.4,6.24-11.64,3.8-3.24,10.5-5.46,20.09-6.67,9.07-1.14,15.76-.73,20.09,1.23,4.32,1.96,7.21,4.49,8.65,7.6,1.44,3.11,2.31,5.83,2.6,8.16l-4.37,2.92c.39-1.1,1.51-3.15,3.37-6.15,1.86-3,4.55-6.23,8.06-9.7,3.51-3.46,7.92-6.58,13.24-9.36,5.31-2.77,11.59-4.61,18.85-5.53,2.85-.36,6.05-.56,9.6-.61,3.55-.05,7.27.27,11.17.97,3.9.69,7.53,1.82,10.89,3.37,3.35,1.55,6.18,3.63,8.48,6.24,2.3,2.61,3.71,5.99,4.23,10.13,1.33,10.63,0,19.94-3.99,27.94-4,8-9.75,12.48-17.27,13.42-4.41.55-7.56.62-9.45.2-1.9-.42-3.48-1.01-4.76-1.77-1.28-.76-2.74-1.37-4.37-1.82-1.64-.45-4.53-.42-8.67.1-3.89.49-7.51,1.47-10.88,2.95-3.37,1.48-6.41,3.51-9.11,6.08-2.7,2.58-4.7,5.59-5.97,9.04-1.28,3.46-1.66,7.25-1.14,11.39l10.69,85.12c.62,4.92.76,9.71.42,14.36-.34,4.65-2.42,8.53-6.24,11.64-3.82,3.11-10.53,5.27-20.11,6.47Z" fill="#cba6f7"/>
  </g>
  <g>
    <path d="M1108.23,313.59c-8.51,0-15.72-1.93-21.43-5.75-8.82-5.89-14.58-16.15-17.61-31.35-1.99-9.99-2.18-18.25-.6-25.26,1.88-8.34,6.57-15.37,13.58-20.32,5.89-4.15,13.47-7.11,23.18-9.04,5.43-1.08,10.47-1.63,14.96-1.63,8.58,0,15.8,1.98,21.48,5.89,8.6,5.93,14.3,16.41,17.41,32.05,1.91,9.61,2.17,17.62.78,24.51-1.73,8.59-6.49,15.72-13.77,20.61-5.83,3.92-13.34,6.75-22.94,8.66-5.45,1.08-10.51,1.63-15.04,1.63Z" fill="#cdd6f4"/>
    <path d="M1120.54,298.23c-11.78,2.34-20.44,1.67-25.96-2.02-5.53-3.69-9.41-11.17-11.65-22.44-1.58-7.94-1.81-14.42-.67-19.44,1.13-5.02,3.8-9.01,8-11.98,4.2-2.96,10.15-5.21,17.83-6.74,11.78-2.34,20.37-1.66,25.77,2.06,5.4,3.72,9.27,11.47,11.62,23.25,1.53,7.68,1.79,14.02.79,19.02-1,4.99-3.62,8.91-7.85,11.75-4.23,2.84-10.19,5.02-17.87,6.55Z" fill="#b4befe"/>
  </g>
  <g>
    <path d="M982.34,306.89c-12.15,0-23.52-1.62-33.81-4.8-15.75-4.87-29.32-12.42-40.33-22.42-10.78-9.79-19.5-21.29-25.92-34.19-6.34-12.73-10.42-25.99-12.14-39.42-2.79-21.84-.23-42.24,7.62-60.63,7.85-18.41,20.22-33.9,36.77-46.04,16.44-12.05,36.17-19.62,58.66-22.49,6-.77,11.85-1.15,17.41-1.15,10.08,0,19.59,1.28,28.24,3.8,13.42,3.92,25.06,9.92,34.61,17.85,9.42,7.83,16.95,16.79,22.39,26.64,5.46,9.87,8.86,19.83,10.11,29.59,2.29,17.94-.72,32.54-8.95,43.41-4.24,5.59-9.33,10.02-15.22,13.26.83.38,1.66.79,2.48,1.24,5.43,3.01,10.38,7.61,14.74,13.7,2.95,3.63,5.18,7.36,6.64,11.09,1.4,3.61,2.34,7.29,2.81,10.97.97,7.58-.23,18.93-11.46,29.91-7.17,7.01-17.01,12.87-30.08,17.93-12.18,4.71-27.15,8.23-44.5,10.44-6.92.88-13.67,1.33-20.07,1.33ZM976.86,224.71c.64.2,1.3.39,1.97.57,3.3.86,6.72,1.29,10.16,1.29,1.85,0,3.75-.12,5.65-.37,5.31-.68,10.08-1.58,14.16-2.67,3.78-1.01,6.9-2.12,9.3-3.31.71-.35,1.4-.7,2.08-1.05l-43.31,5.54ZM987.98,156.48c-1.67,0-3.47.12-5.35.36-5.64.72-10.34,2.38-14.37,5.08-1.6,1.07-3,2.21-4.22,3.42l36.85-4.71s-.05-.05-.07-.07c-1.55-1.52-3.61-2.62-6.27-3.32-1.93-.51-4.14-.77-6.57-.77Z" fill="#cdd6f4"/>
    <path d="M1000.64,291.67c-18.13,2.32-34.12,1.33-47.96-2.95-13.85-4.28-25.53-10.76-35.06-19.41-9.53-8.65-17.13-18.67-22.8-30.06-5.67-11.38-9.26-23.04-10.78-34.95-2.48-19.43-.28-37.21,6.61-53.37,6.88-16.15,17.61-29.56,32.17-40.25,14.56-10.68,31.95-17.31,52.15-19.89,15.02-1.92,28.35-1.19,39.97,2.2,11.62,3.39,21.48,8.45,29.58,15.18,8.1,6.73,14.46,14.28,19.08,22.64,4.62,8.36,7.45,16.56,8.47,24.59,1.82,14.25-.26,25.31-6.22,33.18-5.97,7.87-14.27,12.49-24.89,13.84l-92.48,11.82c1.34,6.41,4.45,11.67,9.32,15.79,4.87,4.12,10.71,7.06,17.52,8.82,6.8,1.76,13.83,2.18,21.09,1.25,5.96-.76,11.29-1.77,16-3.03,4.71-1.26,8.67-2.69,11.89-4.29,3.22-1.59,6.12-3.15,8.68-4.66,2.57-1.51,4.97-2.81,7.21-3.88,2.23-1.07,4.36-1.87,6.41-2.4,3.59-.72,7.23-.07,10.91,1.96,3.68,2.04,7.13,5.35,10.35,9.93,2.17,2.62,3.76,5.18,4.73,7.69.97,2.51,1.63,5.06,1.96,7.65.83,6.48-1.63,12.52-7.36,18.12-5.74,5.61-14.19,10.57-25.35,14.89-11.17,4.32-24.91,7.53-41.23,9.61ZM944.37,181.97l61.39-7.85c3.89-.5,6.77-1.59,8.66-3.28,1.89-1.68,2.57-4.6,2.04-8.75-.56-4.4-2.5-8.23-5.81-11.5-3.32-3.26-7.49-5.56-12.53-6.89-5.04-1.33-10.8-1.58-17.27-.75-7.77.99-14.57,3.44-20.39,7.34-5.82,3.9-10.15,8.67-12.98,14.3-2.83,5.63-3.87,11.42-3.11,17.38Z" fill="#b4befe"/>
  </g>
  <g>
    <path d="M845.23,313.93c-2.56,0-5.33-.13-8.26-.39-12.64-1.11-21.79-4.14-27.99-9.27-6.82-5.62-10.79-13.03-11.47-21.43-.44-5.37-.41-11,.09-16.71l6.15-69.85c.55-6.2.28-11.48-.78-15.69-.81-3.2-1.99-5.58-3.49-7.06-.35-.34-1.48-1.45-5.07-1.77-.63-.06-1.25-.08-1.83-.08-2.28,0-4.13.42-5.65,1.28-1.9,1.08-3.46,2.9-4.76,5.58-1.25,2.56-2.88,7.39-3.63,15.92l-6.15,69.85c-.57,6.48-1.95,12.62-4.11,18.25-2.92,7.61-8.44,13.69-15.97,17.6-5.15,2.67-11.43,3.97-19.22,3.97-3.02,0-6.33-.2-9.85-.6-12.27-1.1-21.15-4.31-27.15-9.81-6.22-5.69-9.86-12.99-10.53-21.11-.44-5.38-.42-10.87.06-16.33l6.15-69.85c.56-6.32.33-11.79-.66-16.25-.68-3.01-1.71-5.25-2.99-6.45-.99-.93-3.02-1.58-5.7-1.82-.63-.06-1.23-.08-1.81-.08-2.36,0-4.18.46-5.57,1.4-2.29,1.55-4.06,3.77-5.43,6.81-1.78,3.96-2.93,8.72-3.41,14.14l-6.18,70.24c-.54,6.11-1.6,11.87-3.17,17.1-2.37,7.91-7.67,14.26-15.33,18.38-5.38,2.88-12.11,4.28-20.61,4.28-2.57,0-5.36-.13-8.29-.39-12.37-1.09-21.4-4.11-27.6-9.23-6.79-5.6-10.77-12.92-11.48-21.16-.46-5.28-.43-10.99.1-16.98l12.02-136.58c.52-5.88,1.57-11.51,3.14-16.72,2.36-7.9,7.67-14.25,15.34-18.37,5.35-2.88,12.09-4.28,20.59-4.28,2.57,0,5.37.13,8.3.39,13.16,1.16,22.75,4.96,29.32,11.64.99,1.01,1.9,2.07,2.72,3.19,4.28-2.42,8.97-4.51,14.01-6.23,5.95-2.02,12.23-3.05,18.67-3.05,1.83,0,3.69.08,5.55.25,10.14.89,19.4,3.24,27.52,6.98,8.21,3.79,15.59,9.01,21.93,15.51,2.04,2.1,3.98,4.35,5.81,6.74,1.01-.86,2.04-1.7,3.1-2.54,6.75-5.37,14.56-9.74,23.21-13.01,7.29-2.75,15.18-4.14,23.48-4.14,2.27,0,4.6.1,6.94.31,18.28,1.61,33.69,7.77,45.79,18.32,11.89,10.38,20.42,24.44,25.36,41.81,4.65,16.37,6.03,35.78,4.11,57.68l-6.15,69.85c-.52,5.95-1.68,11.73-3.44,17.17-2.53,7.82-7.74,14.11-15.09,18.19-5.33,2.96-12.07,4.4-20.63,4.4Z" fill="#cdd6f4"/>
    <path d="M613.82,279.85c-9.36-.82-16.01-2.85-19.91-6.08-3.91-3.23-6.06-7.08-6.45-11.58-.39-4.49-.36-9.34.1-14.54l12.02-136.58c.43-4.94,1.3-9.58,2.6-13.93,1.3-4.34,4.15-7.7,8.55-10.06,4.4-2.37,11.42-3.12,21.04-2.28,9.62.85,16.48,3.36,20.57,7.51,4.09,4.16,5.76,10.53,5,19.12l-5.45,3.85c.63-1.25,2.39-3.33,5.27-6.22,2.87-2.89,6.54-5.85,11-8.86,4.45-3.01,9.59-5.51,15.41-7.49,5.81-1.98,11.96-2.68,18.47-2.11,8.58.76,16.21,2.67,22.89,5.75,6.67,3.08,12.6,7.27,17.77,12.57,5.17,5.31,9.51,11.79,13.04,19.43,4.1-4.88,8.96-9.56,14.61-14.05,5.64-4.48,12.12-8.11,19.44-10.87,7.32-2.76,15.4-3.76,24.25-2.98,15.35,1.35,27.95,6.33,37.81,14.93,9.86,8.6,16.89,20.3,21.1,35.09,4.2,14.79,5.41,32.33,3.63,52.62l-6.15,69.85c-.44,4.95-1.38,9.65-2.81,14.11-1.44,4.46-4.3,7.88-8.57,10.26-4.28,2.38-11.23,3.14-20.85,2.29-9.63-.85-16.4-2.89-20.3-6.11-3.91-3.23-6.06-7.15-6.44-11.77-.38-4.62-.35-9.4.08-14.35l6.15-69.85c.69-7.8.3-14.58-1.16-20.35-1.46-5.76-3.88-10.3-7.26-13.62-3.38-3.31-7.93-5.22-13.65-5.72s-11.19.46-15.6,2.95c-4.42,2.5-7.9,6.38-10.46,11.66-2.57,5.28-4.22,12.21-4.98,20.8l-6.15,69.85c-.46,5.21-1.54,10.03-3.24,14.46-1.7,4.44-4.82,7.83-9.35,10.19-4.53,2.35-11.6,2.97-21.2,1.87-9.11-.8-15.48-2.87-19.12-6.2-3.64-3.33-5.65-7.31-6.03-11.93-.38-4.62-.36-9.27.05-13.96l6.15-69.85c.69-7.8.37-14.65-.95-20.53-1.32-5.88-3.67-10.41-7.06-13.6-3.39-3.18-8.08-5.04-14.06-5.56-6.51-.57-11.99.65-16.45,3.66-4.46,3.02-7.91,7.24-10.36,12.66-2.44,5.43-3.97,11.64-4.59,18.67l-6.18,70.24c-.46,5.21-1.34,9.98-2.64,14.32-1.3,4.35-4.15,7.7-8.55,10.06-4.41,2.36-11.42,3.12-21.04,2.28Z" fill="#cba6f7"/>
  </g>
  <g>
    <path d="M481.01,314.2c-13.33,0-26.78-2.52-39.98-7.49-13.72-5.17-26.4-12.73-37.68-22.46-11.45-9.86-20.76-21.93-27.67-35.87-7-14.1-10.71-29.96-11.02-47.13-.29-16,2.53-31.2,8.4-45.18,5.77-13.77,13.97-26.23,24.37-37.02,10.39-10.77,22.54-19.42,36.11-25.71,13.78-6.37,28.73-9.75,44.45-10.03.8-.01,1.59-.02,2.38-.02,20.32,0,39.21,4.85,56.12,14.41,17.44,9.86,31.67,23.58,42.31,40.77,10.72,17.34,16.35,36.91,16.74,58.17.33,17.95-2.79,34.32-9.28,48.68-6.38,14.14-15.16,26.51-26.09,36.79-10.85,10.21-23.12,18.13-36.47,23.54-13.35,5.41-27.05,8.28-40.72,8.53-.65.01-1.31.02-1.96.02ZM479.18,170.46c-5.31.1-9.8,1.33-13.72,3.76-4.09,2.54-7.3,5.93-9.81,10.36-2.43,4.29-3.56,9.09-3.46,14.68.12,6.61,1.55,11.78,4.36,15.8,2.95,4.22,6.44,7.17,10.66,9.01,4.52,1.98,8.87,2.99,12.95,2.99h.46c4.18-.08,8.46-1.25,13.07-3.57,4.35-2.19,7.92-5.38,10.91-9.78,2.64-3.87,3.91-9.21,3.79-15.87-.11-5.88-1.37-10.73-3.85-14.82-2.45-4.03-5.7-7.08-9.92-9.3-4.18-2.2-8.97-3.28-14.63-3.28-.27,0-.54,0-.81,0Z" fill="#cdd6f4"/>
    <path d="M482.72,300.18c-12.28.22-24.52-1.97-36.75-6.58-12.23-4.61-23.39-11.26-33.47-19.96-10.09-8.69-18.18-19.19-24.28-31.49-6.1-12.29-9.29-26.01-9.57-41.16-.26-14.1,2.18-27.27,7.31-39.51,5.13-12.24,12.31-23.15,21.54-32.72,9.23-9.57,19.86-17.14,31.91-22.72,12.04-5.57,24.98-8.49,38.82-8.74,18.8-.34,35.92,3.85,51.36,12.58,15.44,8.73,27.87,20.71,37.29,35.95,9.42,15.24,14.3,32.26,14.65,51.06.29,15.93-2.39,30.15-8.04,42.66-5.65,12.51-13.29,23.3-22.92,32.35-9.63,9.06-20.34,15.98-32.14,20.76-11.8,4.78-23.71,7.29-35.71,7.51ZM480.86,241.06c6.27-.11,12.63-1.8,19.11-5.05,6.47-3.25,11.87-8.05,16.19-14.4,4.32-6.35,6.4-14.35,6.22-24.01-.15-8.35-2.12-15.63-5.89-21.83-3.77-6.2-8.89-11-15.35-14.41-6.47-3.41-13.87-5.04-22.23-4.88-7.83.14-14.79,2.1-20.85,5.87-6.07,3.77-10.94,8.89-14.61,15.35-3.67,6.47-5.43,13.75-5.28,21.84.17,9.4,2.47,17.26,6.89,23.58,4.43,6.32,9.93,10.92,16.51,13.8,6.58,2.89,13.01,4.27,19.27,4.15Z" fill="#b4befe"/>
    <path d="M574.78,145.86c10.66-78.14-33.22-122.79-33.22-122.79,0,0-40.74,14.67-67.33,65.5,0,0,72.11-10.63,100.55,57.29" fill="#cba6f7" stroke="#cdd6f4" stroke-miterlimit="10" stroke-width="14"/>
    <path d="M372.57,180.48c-35.99-70.07-9.45-126.91-9.45-126.91,0,0,43.27.13,85.2,39.1,0,0-71.49,14.23-75.75,87.81" fill="#cba6f7" stroke="#cdd6f4" stroke-miterlimit="10" stroke-width="14"/>
  </g>
  <g>
    <path d="M215.99,335.93c-6.07,0-11.12-.95-15.46-2.91-7.79-3.52-13.5-9.5-16.49-17.28-1.99-5.14-3.53-10.84-4.57-16.89l-38.27-222.37c-1.07-6.19-1.43-12.18-1.09-17.78.48-8.03,3.93-15.35,9.98-21.16,5.71-5.49,14.26-9.07,26.89-11.24,4.95-.85,9.31-1.27,13.32-1.27,6.33,0,11.6,1.04,16.09,3.19,7.65,3.68,13.24,9.57,16.19,17.06,2,5.11,3.54,10.76,4.58,16.8l8.84,51.39c8.04-6.09,17.78-10.15,29.03-12.09,5.82-1,11.63-1.51,17.28-1.51,12.32,0,24.31,2.4,35.64,7.14,16.3,6.82,30.39,17.74,41.88,32.44,11.42,14.64,19,32.45,22.52,52.93l12.03,69.88c1.06,6.17,1.43,12.14,1.09,17.76-.49,7.97-3.82,15.22-9.63,20.98-5.61,5.57-14.27,9.2-27.25,11.43-4.88.84-9.37,1.27-13.35,1.27-5.99,0-11.02-.92-15.39-2.82-8.01-3.49-13.85-9.48-16.87-17.33-1.99-5.15-3.53-10.84-4.57-16.9l-12.03-69.88c-.91-5.31-2.5-9.56-4.72-12.65-1.94-2.69-4.29-4.52-7.39-5.77-1.91-.77-4.04-1.14-6.5-1.14-1.56,0-3.26.16-5.05.46-6.3,1.08-11.27,3.81-15.2,8.35-3.53,4.07-5.18,8.08-5.15,12.56l13.05,75.85c1.06,6.17,1.43,12.14,1.09,17.76-.49,8.04-3.94,15.36-9.97,21.16-5.73,5.5-14.28,9.08-26.9,11.25-5.1.88-9.57,1.31-13.66,1.31Z" fill="#cdd6f4"/>
    <path d="M227.27,320.83c-9.52,1.64-16.51,1.45-20.97-.56-4.46-2.02-7.52-5.2-9.2-9.55-1.68-4.34-2.96-9.09-3.84-14.24l-38.27-222.37c-.89-5.15-1.19-9.99-.91-14.55.27-4.55,2.17-8.52,5.7-11.91,3.52-3.39,10.05-5.9,19.57-7.54s16.52-1.38,21,.76c4.47,2.15,7.54,5.33,9.2,9.55,1.65,4.22,2.92,8.91,3.81,14.05l13.55,78.75c3.79-5.68,8.98-11.35,15.56-16.99,6.58-5.64,14.89-9.32,24.93-11.05,15.95-2.75,31-1.16,45.14,4.75,14.13,5.91,26.21,15.3,36.25,28.14,10.02,12.85,16.62,28.41,19.76,46.68l12.03,69.88c.89,5.15,1.19,10,.91,14.55-.28,4.56-2.11,8.51-5.51,11.88-3.4,3.37-9.98,5.89-19.76,7.57-9.27,1.59-16.19,1.4-20.77-.6-4.58-1.99-7.71-5.16-9.39-9.52-1.68-4.34-2.96-9.09-3.84-14.24l-12.03-69.88c-1.28-7.46-3.67-13.61-7.15-18.45-3.48-4.83-8-8.36-13.55-10.59-5.55-2.22-11.93-2.72-19.13-1.48-9.52,1.64-17.33,5.96-23.41,12.97-6.08,7.01-8.93,14.72-8.54,23.13l13.22,76.82c.89,5.15,1.19,10,.91,14.55-.28,4.56-2.18,8.52-5.7,11.91-3.53,3.39-10.05,5.9-19.57,7.54Z" fill="#cba6f7"/>
  </g>
</svg>